<svg width="56" height="56" viewBox="0 0 56 56" fill="none" xmlns="http://www.w3.org/2000/svg">
<rect width="56" height="56" rx="4" fill="#F15A24"/>
<path d="M16 22.6667H40C40.3536 22.6667 40.6928 22.5262 40.9428 22.2761C41.1929 22.0261 41.3334 21.687 41.3334 21.3333C41.3334 20.9797 41.1929 20.6406 40.9428 20.3905C40.6928 20.1405 40.3536 20 40 20H16C15.6464 20 15.3073 20.1405 15.0572 20.3905C14.8072 20.6406 14.6667 20.9797 14.6667 21.3333C14.6667 21.687 14.8072 22.0261 15.0572 22.2761C15.3073 22.5262 15.6464 22.6667 16 22.6667ZM40 33.3333H16C15.6464 33.3333 15.3073 33.4738 15.0572 33.7239C14.8072 33.9739 14.6667 34.313 14.6667 34.6667C14.6667 35.0203 14.8072 35.3594 15.0572 35.6095C15.3073 35.8595 15.6464 36 16 36H40C40.3536 36 40.6928 35.8595 40.9428 35.6095C41.1929 35.3594 41.3334 35.0203 41.3334 34.6667C41.3334 34.313 41.1929 33.9739 40.9428 33.7239C40.6928 33.4738 40.3536 33.3333 40 33.3333ZM40 26.6667H16C15.6464 26.6667 15.3073 26.8071 15.0572 27.0572C14.8072 27.3072 14.6667 27.6464 14.6667 28C14.6667 28.3536 14.8072 28.6928 15.0572 28.9428C15.3073 29.1929 15.6464 29.3333 16 29.3333H40C40.3536 29.3333 40.6928 29.1929 40.9428 28.9428C41.1929 28.6928 41.3334 28.3536 41.3334 28C41.3334 27.6464 41.1929 27.3072 40.9428 27.0572C40.6928 26.8071 40.3536 26.6667 40 26.6667Z" fill="white"/>
</svg>
